<svg id="Layer_1" data-name="Layer 1" xmlns="http://www.w3.org/2000/svg" xmlns:xlink="http://www.w3.org/1999/xlink" viewBox="0 0 118 46"><defs><style>.cls-1{fill:url(#linear-gradient);}.cls-2{stroke-miterlimit:10;fill:url(#linear-gradient-2);stroke:url(#linear-gradient-3);}.cls-3{fill:url(#linear-gradient-4);}.cls-4{fill:url(#linear-gradient-5);}.cls-5{fill:url(#linear-gradient-6);}.cls-6{fill:url(#linear-gradient-7);}.cls-7{fill:url(#linear-gradient-8);}.cls-8{fill:url(#linear-gradient-9);}.cls-9{fill:url(#linear-gradient-10);}</style><linearGradient id="linear-gradient" x1="74.94" y1="27.06" x2="77.19" y2="27.06" gradientTransform="matrix(1, 0, 0, -1, 0, 48)" gradientUnits="userSpaceOnUse"><stop offset="0" stop-color="#00a99d"/><stop offset="1" stop-color="#4d4d4d"/></linearGradient><linearGradient id="linear-gradient-2" x1="43.29" y1="26.05" x2="74.67" y2="26.05" gradientTransform="matrix(1, 0, 0, -1, 0, 48)" gradientUnits="userSpaceOnUse"><stop offset="0" stop-color="#2affe4"/><stop offset="1" stop-color="#4d4d4d"/></linearGradient><linearGradient id="linear-gradient-3" x1="42.79" y1="26.05" x2="75.17" y2="26.05" xlink:href="#linear-gradient-2"/><linearGradient id="linear-gradient-4" x1="74.72" y1="39.08" x2="77.01" y2="39.08" xlink:href="#linear-gradient"/><linearGradient id="linear-gradient-5" x1="76.62" y1="35.11" x2="79.61" y2="35.11" xlink:href="#linear-gradient"/><linearGradient id="linear-gradient-6" x1="72.05" y1="33.21" x2="75.67" y2="33.21" xlink:href="#linear-gradient"/><linearGradient id="linear-gradient-7" x1="68.67" y1="40.21" x2="70.71" y2="40.21" xlink:href="#linear-gradient"/><linearGradient id="linear-gradient-8" x1="78.73" y1="39.43" x2="79.98" y2="39.43" xlink:href="#linear-gradient"/><linearGradient id="linear-gradient-9" x1="77.11" y1="31.08" x2="78.37" y2="31.08" xlink:href="#linear-gradient"/><linearGradient id="linear-gradient-10" x1="76.68" y1="42.2" x2="78.72" y2="42.2" xlink:href="#linear-gradient"/></defs><title>Untitled-2</title><rect class="cls-1" x="74.94" y="19.71" width="2.25" height="2.46"/><path class="cls-2" d="M74.54,22.67H73.19v-3.4h1.36V17H70.27V12.55h4.27v-2.1h-2V7.32h2V6.24H70.22A8,8,0,0,0,63,10.78L59.06,19,56,12.74a9.34,9.34,0,0,0-.65-1.1L53.75,9.4a7.05,7.05,0,0,0-3-2.46,3.25,3.25,0,0,0-1.12-.24l-6.35-.39c-.09,0,0-.09,0,0l.31,31.2c0,.09-.1,0,0,0l8.8.15c.09,0,.1-.19.1-.28s0-16.88.42-16L59.5,36.5l6-15c.69-1.26,0,16,0,16s0,.16.08.16h8.93C74.85,37.66,74.54,22.67,74.54,22.67ZM70.18,9.22H68.43V7.46h1.75V9.21Z"/><rect class="cls-3" x="74.72" y="7.67" width="2.29" height="2.5"/><rect class="cls-4" x="76.62" y="11.26" width="2.99" height="3.26"/><rect class="cls-5" x="72.05" y="13.04" width="3.62" height="3.51"/><rect class="cls-6" x="68.67" y="6.77" width="2.04" height="2.04"/><rect class="cls-7" x="78.73" y="7.94" width="1.25" height="1.27"/><rect class="cls-8" x="77.11" y="16.28" width="1.25" height="1.27"/><rect class="cls-9" x="76.68" y="4.78" width="2.04" height="2.04"/></svg>