<svg id="Layer_1" data-name="Layer 1" xmlns="http://www.w3.org/2000/svg" xmlns:xlink="http://www.w3.org/1999/xlink" viewBox="0 0 118 46"><defs><style>.cls-1{fill:url(#linear-gradient);}.cls-2{stroke-miterlimit:10;fill:url(#linear-gradient-2);stroke:url(#linear-gradient-3);}.cls-3{fill:url(#linear-gradient-4);}.cls-4{fill:url(#linear-gradient-5);}.cls-5{fill:url(#linear-gradient-6);}.cls-6{fill:url(#linear-gradient-7);}.cls-7{fill:url(#linear-gradient-8);}.cls-8{font-size:21.39px;fill:#485f5b;font-family:LucidaBright, Lucida Bright;letter-spacing:0.02em;}.cls-9{font-size:25px;letter-spacing:0.02em;}.cls-10{letter-spacing:0.02em;}.cls-11{fill:url(#linear-gradient-9);}.cls-12{fill:url(#linear-gradient-10);}</style><linearGradient id="linear-gradient" x1="48.94" y1="21.94" x2="51.19" y2="21.94" gradientUnits="userSpaceOnUse"><stop offset="0" stop-color="#00a99d"/><stop offset="1" stop-color="#4d4d4d"/></linearGradient><linearGradient id="linear-gradient-2" x1="17.26" y1="23.04" x2="48.63" y2="23.04" gradientUnits="userSpaceOnUse"><stop offset="0" stop-color="#2affe4"/><stop offset="1" stop-color="#4d4d4d"/></linearGradient><linearGradient id="linear-gradient-3" x1="16.76" y1="23.13" x2="49.13" y2="23.13" xlink:href="#linear-gradient-2"/><linearGradient id="linear-gradient-4" x1="48.72" y1="9.92" x2="51.01" y2="9.92" xlink:href="#linear-gradient"/><linearGradient id="linear-gradient-5" x1="50.62" y1="13.89" x2="53.61" y2="13.89" xlink:href="#linear-gradient"/><linearGradient id="linear-gradient-6" x1="46.05" y1="15.79" x2="49.67" y2="15.79" xlink:href="#linear-gradient"/><linearGradient id="linear-gradient-7" x1="42.67" y1="8.79" x2="44.71" y2="8.79" xlink:href="#linear-gradient"/><linearGradient id="linear-gradient-8" x1="52.73" y1="9.57" x2="53.98" y2="9.57" xlink:href="#linear-gradient"/><linearGradient id="linear-gradient-9" x1="51.11" y1="17.92" x2="52.37" y2="17.92" xlink:href="#linear-gradient"/><linearGradient id="linear-gradient-10" x1="50.68" y1="6.79" x2="52.72" y2="6.79" xlink:href="#linear-gradient"/></defs><title>logo</title><rect class="cls-1" x="48.94" y="20.71" width="2.25" height="2.46"/><path class="cls-2" d="M48.54,37.9V23.67a0,0,0,0,0,0,0H47.19s0,0,0,0V20.27h1.36V18H44.27a0,0,0,0,1,0,0V13.55a0,0,0,0,1,0,0h4.27V11.45h-2V8.32h2V7.24H44.22A8,8,0,0,0,37,11.78L33.06,20h0l-3.11-6.26a9.34,9.34,0,0,0-.65-1.1L27.75,10.4a7,7,0,0,0-3.49-2.67h0l-.19,0-3.31-.22-3.43-.2c-.09,0,0-.09,0,0l.31,31.2c0,.09-.1,0,0,0l8.8.15c.09,0,.1-.19.1-.28l.09-16.28c0-.16,0-.43.07-.31s.34.92.26.59l6,16.54.2-.09,5.78-16.27h0c.69-1.26.36-1.18.36-.76h0l.28,16.86c0,.09-.09,0,0,0l8.93,0c.34,0,.07-.08.09-.63h0ZM44.18,10.22H42.43V8.46h1.75s0,0,0,0v1.75Z"/><rect class="cls-3" x="48.72" y="8.67" width="2.29" height="2.5"/><rect class="cls-4" x="50.62" y="12.26" width="2.99" height="3.26"/><rect class="cls-5" x="46.05" y="14.04" width="3.62" height="3.51"/><rect class="cls-6" x="42.67" y="7.77" width="2.04" height="2.04"/><rect class="cls-7" x="52.73" y="8.94" width="1.25" height="1.27"/><text class="cls-8" transform="translate(49.48 38.66)">ed<tspan class="cls-9" x="26.03" y="0">E</tspan><tspan class="cls-10" x="40.77" y="0">x</tspan></text><rect class="cls-11" x="51.11" y="17.28" width="1.25" height="1.27"/><rect class="cls-12" x="50.68" y="5.78" width="2.04" height="2.04"/></svg>