<svg id="Layer_1" data-name="Layer 1" xmlns="http://www.w3.org/2000/svg" xmlns:xlink="http://www.w3.org/1999/xlink" viewBox="0 0 118 46"><defs><style>.cls-1{fill:url(#linear-gradient);}.cls-2{stroke-miterlimit:10;fill:url(#linear-gradient-2);stroke:url(#linear-gradient-3);}.cls-3{fill:url(#linear-gradient-4);}.cls-4{fill:url(#linear-gradient-5);}.cls-5{fill:url(#linear-gradient-6);}.cls-6{fill:url(#linear-gradient-7);}.cls-7{fill:url(#linear-gradient-8);}.cls-8{fill:url(#linear-gradient-9);}.cls-9{fill:url(#linear-gradient-10);}.cls-10,.cls-11,.cls-12{isolation:isolate;}.cls-11{font-size:21.39px;letter-spacing:0.02em;}.cls-11,.cls-12{fill:#fcfcfc;font-family:LucidaBright, Lucida Bright;}.cls-12{font-size:25px;letter-spacing:0.02em;}</style><linearGradient id="linear-gradient" x1="47.94" y1="28.06" x2="50.19" y2="28.06" gradientTransform="matrix(1, 0, 0, -1, 0, 48)" gradientUnits="userSpaceOnUse"><stop offset="0" stop-color="#00a99d"/><stop offset="1" stop-color="#4d4d4d"/></linearGradient><linearGradient id="linear-gradient-2" x1="16.29" y1="27.05" x2="47.67" y2="27.05" gradientTransform="matrix(1, 0, 0, -1, 0, 48)" gradientUnits="userSpaceOnUse"><stop offset="0" stop-color="#2affe4"/><stop offset="1" stop-color="#4d4d4d"/></linearGradient><linearGradient id="linear-gradient-3" x1="15.79" y1="27.05" x2="48.17" y2="27.05" xlink:href="#linear-gradient-2"/><linearGradient id="linear-gradient-4" x1="47.72" y1="40.08" x2="50.01" y2="40.08" xlink:href="#linear-gradient"/><linearGradient id="linear-gradient-5" x1="49.62" y1="36.11" x2="52.61" y2="36.11" xlink:href="#linear-gradient"/><linearGradient id="linear-gradient-6" x1="45.05" y1="34.21" x2="48.67" y2="34.21" xlink:href="#linear-gradient"/><linearGradient id="linear-gradient-7" x1="41.67" y1="41.21" x2="43.71" y2="41.21" xlink:href="#linear-gradient"/><linearGradient id="linear-gradient-8" x1="51.73" y1="40.43" x2="52.98" y2="40.43" xlink:href="#linear-gradient"/><linearGradient id="linear-gradient-9" x1="50.11" y1="32.08" x2="51.37" y2="32.08" xlink:href="#linear-gradient"/><linearGradient id="linear-gradient-10" x1="49.68" y1="43.2" x2="51.72" y2="43.2" xlink:href="#linear-gradient"/></defs><title>general logo</title><rect class="cls-1" x="47.94" y="18.71" width="2.25" height="2.46"/><path class="cls-2" d="M47.54,21.67H46.19v-3.4h1.36V16H43.27V11.55h4.27V9.45h-2V6.32h2V5.24H43.22A8,8,0,0,0,36,9.78L32.06,18,29,11.74a9.34,9.34,0,0,0-.65-1.1L26.75,8.4A7.05,7.05,0,0,0,23.8,5.94a3.25,3.25,0,0,0-1.12-.24l-6.35-.39c-.09,0,0-.09,0,0l.31,31.2c0,.09-.1,0,0,0l8.8.15c.09,0,.1-.19.1-.28s0-16.88.42-16L32.5,35.5l6-15c.69-1.26,0,16,0,16s0,.16.08.16h8.93C47.85,36.66,47.54,21.67,47.54,21.67ZM43.18,8.22H41.43V6.46h1.75V8.21Z"/><rect class="cls-3" x="47.72" y="6.67" width="2.29" height="2.5"/><rect class="cls-4" x="49.62" y="10.26" width="2.99" height="3.26"/><rect class="cls-5" x="45.05" y="12.04" width="3.62" height="3.51"/><rect class="cls-6" x="41.67" y="5.77" width="2.04" height="2.04"/><rect class="cls-7" x="51.73" y="6.94" width="1.25" height="1.27"/><rect class="cls-8" x="50.11" y="15.28" width="1.25" height="1.27"/><rect class="cls-9" x="49.68" y="3.78" width="2.04" height="2.04"/><g class="cls-10"><text class="cls-11" transform="translate(50.48 36.66)">ed</text><text class="cls-12" transform="translate(76.51 36.66)">E</text><text class="cls-11" transform="translate(91.25 36.66)">x</text></g></svg>